<?xml version="1.0" standalone="no"?>
<!DOCTYPE svg PUBLIC "-//W3C//DTD SVG 20010904//EN"
 "http://www.w3.org/TR/2001/REC-SVG-20010904/DTD/svg10.dtd">
<svg version="1.0" xmlns="http://www.w3.org/2000/svg"
 width="616.000000pt" height="616.000000pt" viewBox="0 0 616.000000 616.000000"
 preserveAspectRatio="xMidYMid meet">
<metadata>
Created by potrace 1.11, written by Peter Selinger 2001-2013
</metadata>
<g transform="translate(0.000000,616.000000) scale(0.100000,-0.100000)"
fill="#000000" stroke="none">
<path d="M2060 5093 c-262 -18 -622 -135 -817 -265 -23 -15 -44 -28 -47 -28
-7 0 -160 -115 -206 -155 -194 -168 -381 -413 -481 -632 -34 -76 -119 -286
-124 -308 -16 -68 -47 -339 -50 -440 -5 -183 24 -413 71 -558 13 -40 14 -50 2
-64 -11 -14 -11 -16 3 -11 12 5 24 -15 53 -85 21 -51 38 -100 39 -109 1 -10 5
-18 10 -18 4 0 5 -4 2 -10 -3 -5 -2 -10 4 -10 5 0 13 -10 17 -22 4 -13 10 -25
13 -28 9 -7 106 -164 103 -167 -1 -2 7 -12 18 -23 12 -12 18 -26 14 -32 -4 -7
-3 -8 4 -4 7 4 12 1 12 -7 0 -8 7 -17 15 -21 10 -3 14 -15 11 -35 -3 -26 -1
-29 14 -21 14 8 24 2 46 -27 28 -36 55 -68 75 -88 51 -49 94 -99 94 -109 0 -6
7 -11 15 -11 26 0 148 -98 155 -125 7 -24 8 -24 15 -5 7 17 9 17 9 3 1 -11 6
-15 16 -12 8 4 15 1 15 -5 0 -6 5 -11 12 -11 6 0 26 -11 44 -25 18 -14 37 -25
43 -25 6 0 47 -20 93 -44 192 -100 453 -174 683 -193 39 -3 71 -9 73 -14 2 -4
9 -6 15 -4 12 4 276 16 350 16 20 -1 37 3 37 7 0 4 8 8 18 8 9 1 67 13 129 28
62 15 118 24 124 20 8 -5 9 -3 4 6 -6 10 -4 12 8 7 10 -3 17 -3 17 1 0 5 17
14 38 21 20 7 73 29 117 48 44 19 88 36 97 38 10 2 27 13 39 24 12 11 35 25
53 32 17 7 45 23 61 34 50 37 59 40 52 22 -3 -10 -4 -17 -1 -17 2 0 9 11 14
25 8 21 13 24 28 16 14 -8 18 -5 19 11 2 26 52 68 72 60 9 -3 12 -1 7 6 -3 6
11 25 34 44 54 45 209 193 190 183 -13 -8 -13 -6 -1 8 7 9 18 14 24 10 6 -3 7
-1 3 5 -3 6 -1 14 6 19 7 4 26 27 41 51 15 23 34 42 43 42 10 0 14 6 10 15 -3
8 -1 15 4 15 6 0 10 6 10 14 0 21 18 30 34 17 9 -8 13 -7 13 4 0 8 -4 12 -9 9
-17 -10 -7 15 27 71 33 55 56 86 41 55 -4 -8 -1 -7 8 3 8 11 12 25 9 33 -3 8
1 21 8 30 26 31 120 283 139 369 43 205 60 359 60 541 0 154 44 326 99 388 37
42 139 82 426 166 363 108 484 144 595 177 63 19 158 48 210 63 143 43 322
106 383 135 80 38 120 98 125 188 8 127 -35 224 -114 259 -100 44 -190 35
-351 -33 -127 -53 -505 -221 -608 -269 -44 -21 -143 -63 -220 -95 -77 -31
-194 -80 -260 -108 -174 -73 -272 -107 -312 -107 -42 0 -118 37 -190 90 -49
37 -130 125 -236 256 -91 113 -224 237 -357 333 -366 264 -795 386 -1250 354z
m3700 -585 c11 -12 21 -29 22 -37 0 -9 2 -23 3 -31 2 -25 -14 -49 -43 -64 -37
-19 -134 -54 -200 -72 -48 -14 -54 -13 -77 3 -32 23 -40 54 -23 90 9 21 38 40
108 75 127 63 177 71 210 36z"/>
<path d="M737 1973 c5 -12 3 -14 -8 -8 -8 4 -11 4 -6 0 4 -5 16 -9 27 -10 19
-2 19 -1 3 17 -20 22 -24 23 -16 1z"/>
<path d="M2555 1360 c-3 -6 1 -7 9 -4 18 7 21 14 7 14 -6 0 -13 -4 -16 -10z"/>
</g>
</svg>
